# xmcd
#
# Track frame offsets:
#	150
#	28364
#	60145
#	86241
#	94598
#	101817
#	122284
#	159614
#	168506
#	177104
#	186997
#
# Disc length: 2792 seconds
#
# Revision: 1
# Processed by: cddbd v1.4PL0 Copyright (c) Steve Scherf et al.
# Submitted via: EasyCDDAExtractor 6.2.0.3
#
DISCID=890ae60b
DTITLE=Chris Rea - Blue Street
DYEAR=2003
DGENRE=Blues
TTITLE0=Blue Miles
TTITLE1=Blue Street
TTITLE2=Big C
TTITLE3=Big C Big Sea
TTITLE4=Hofner Break
TTITLE5=Heading For The City
TTITLE6=First Snow Mingus
TTITLE7=Piano Break
TTITLE8=Still Going To A Go Go
TTITLE9=Are You Ready
TTITLE10=Funk 48
EXTD=
EXTT0=
EXTT1=
EXTT2=
EXTT3=
EXTT4=
EXTT5=
EXTT6=
EXTT7=
EXTT8=
EXTT9=
EXTT10=
PLAYORDER=
